<?xml version="1.0" ?><svg enable-background="new 0 0 320 320" id="Layer_1" version="1.1" viewBox="0 0 320 320" xml:space="preserve" xmlns="http://www.w3.org/2000/svg" xmlns:xlink="http://www.w3.org/1999/xlink"><g><g><path d="M257.9,152.6c0-8.4-4.7-15.7-11.7-20c0.8-2.8,1.4-5.7,1.4-8.7c0-18.5-16.2-33.4-36.1-33.4    c-2.2,0-4.3,0.3-6.4,0.6c-4.4-16.8-20.5-29.2-40-29.2c-20.4,0-37.2,13.7-40.5,31.7c-3.2-1.9-7-3-11-3c-11.4,0-20.6,8.5-20.6,19.1    c0,0.2,0,0.3,0.1,0.5c-17.5,2.3-31,16.1-31,32.9c0,18.5,16.2,33.2,36.1,33.4c5.2,0.1,0.2,0.1,5.2,0l0,0h134V176    C249.1,173.8,257.9,164.2,257.9,152.6z" fill="#6DEBF2"/></g><g><path d="M72.4,143.1c0-16.8,13.5-30.6,30.9-32.9c-1.7-0.2-3.4-0.5-5.2-0.5c-19.9,0-36.1,15-36.1,33.4    s16.2,33.4,36.1,33.4c1.8,0,3.5-0.3,5.2-0.5C85.8,173.7,72.4,159.9,72.4,143.1z" fill="#8FF9F9"/></g><g><path d="M185.8,124c0-16.8,13.4-30.6,30.9-32.9c-10.5-1-21.3,1.9-29.4,9.3c-14.1,13.1-14.1,34.2,0,47.3    c8.1,7.5,19.1,10.5,29.7,9.3C199.4,154.7,185.8,140.9,185.8,124z" fill="#8FF9F9"/></g><g><path d="M257.5,163.2l-3.8-1.6c1.4-3,2.2-6,2.2-9c0-7.4-4-14.3-10.8-18.4l-1.3-0.8l0.4-1.3c0.9-3.1,1.3-5.7,1.3-8.2    c0-17.4-15.3-31.5-34-31.5c-1.8,0-3.7,0.2-6.1,0.6l-1.9,0.3l-0.5-1.7c-4.3-16.4-19.9-27.8-38-27.8c-2.5,0-5.2,0.3-8.2,0.9    l-0.9-3.7c3.3-0.7,6.2-1,9-1c19.4,0,36.2,11.8,41.5,29c1.8-0.2,3.4-0.3,4.9-0.3c21,0,38.1,15.9,38.1,35.3c0,2.5-0.4,5-1.1,7.9    c7.2,4.9,11.4,12.5,11.4,20.8C260,156.2,259.1,159.7,257.5,163.2z"/></g><g><rect height="3.8" width="134" x="103.3" y="174.6"/></g><g><path d="M64.1,143.1H60c0-16.8,13.2-31.4,31-34.6c0.6-11.1,10.6-19.9,22.6-19.9c3.3,0,6.6,0.7,9.6,2c1.2-4.4,3.2-8.6,6.1-12.6    l3.4,2.1c-3.1,4.4-5.1,9-6,13.7l-0.5,2.8l-2.6-1.5c-3-1.8-6.4-2.7-9.9-2.7c-10.2,0-18.6,7.7-18.6,17.2l0.1,1.7l-1.8,0.7    C76.7,114.2,64.1,127.6,64.1,143.1z"/></g></g><g><polygon fill="#F4E90B" points="175.5,186 134.2,224.2 165.2,224.2 154.8,252.9 196.1,214.7 165.2,214.7  "/></g><g><polygon points="150.1,260 162.3,226.1 155.6,226.1 155.6,222.3 168,222.3 159.6,245.8 191.1,216.6 162.3,216.6 170.7,193.1    139.2,222.3 141.3,222.3 141.3,226.1 129.2,226.1 180.2,179 168,212.8 201,212.8  "/></g></svg>